<?xml version="1.0" encoding="UTF-8"?>
<svg id="Capa_1" data-name="Capa 1" xmlns="http://www.w3.org/2000/svg" viewBox="0 0 812.39 440.04">
  <defs>
    <style>
      .cls-1 {
        font-size: 86.97px;
      }

      .cls-1, .cls-2 {
        fill: #1d1d1b;
      }

      .cls-3 {
        fill: #037ea5;
      }

      .cls-3, .cls-4, .cls-5, .cls-6, .cls-7, .cls-8, .cls-2 {
        stroke-width: 0px;
      }

      .cls-9, .cls-4 {
        fill: #f1e623;
      }

      .cls-9, .cls-10 {
        stroke: #1d1d1b;
        stroke-miterlimit: 10;
      }

      .cls-11 {
        font-family: MyriadPro-Regular, 'Myriad Pro';
      }

      .cls-11, .cls-12 {
        letter-spacing: 0em;
      }

      .cls-13, .cls-12 {
        font-family: Computer-Regular, Computer;
      }

      .cls-6 {
        fill: #f6e81d;
      }

      .cls-7 {
        fill: #fff;
      }

      .cls-8 {
        fill: #e31213;
      }
    </style>
  </defs>
  <path class="cls-10" d="m156.99,2.29c1.03-1.41,2.79-2.07,4.49-1.68,25.86,5.94,207.3,61.87,213.33,67.89,5.96,5.95,85.46,147.08,93.04,170.26.52,1.6.24,3.36-.73,4.74l-42.9,61.14c-1.17,1.67-3.22,2.49-5.22,2.1l-25.21-4.98c-1.9-.38-3.84.46-4.88,2.1l-44.8,71.02c-.63,1-1.55,1.79-2.63,2.26-15.39,6.7-133.14,57.72-159.81,62.29-2.43.42-4.9-.42-6.55-2.26L2.46,244.36c-2.55-2.85-2.62-7.13-.16-10.06l80.67-96.02c7.23-8.6,15.57-16.21,24.79-22.63,6.44-4.48,11.82-8.07,14.94-10.12,1.68-1.11,2.34-3.25,1.59-5.12l-12.33-30.52c-.91-2.27-.6-4.84.84-6.82L156.99,2.29Z"/>
  <path class="cls-8" d="m128.31,365.82l37.92-43.7c1.8-2.3,5.38-1.45,7.39.68l46.24,50.81q-.28,2.43-1.86,4.28l-37.2,42.56c-1.85,2.17-3.21,4.82-5.15,2.73l-44.98-50c-1.61-1.72-3.81-5.5-2.36-7.36Z"/>
  <path class="cls-8" d="m69.46,301.18l37.28-43.47c1.8-2.3,4.64-2.98,6.64-.86l46.38,50.59c1.67,1.77,1.24,4.9-.35,6.76l-35.95,42.16c-1.85,2.17-5.71,3.2-7.65,1.11l-44.66-49.33c-1.61-1.72-3.14-5.11-1.69-6.96Z"/>
  <path class="cls-8" d="m178.26,308.27l35.81-44.21c1.73-2.26,4.44-3.78,6.41-1.72l44.86,49.61c1.65,1.72,3.97,5.51,2.43,7.32l-36.98,42.74c-1.8,2.11-6.8,3.84-8.69,1.82l-43.42-49.02c-1.55-1.66-1.81-4.73-.43-6.53Z"/>
  <path class="cls-8" d="m118.64,244.14l35.14-43.3c1.8-2.3,7.36-3.96,9.36-1.83l45.74,50.45c1.67,1.77.9,5.4-.69,7.26l-35.95,42.16c-1.85,2.17-6.31,2.84-8.25.76l-44.06-48.97c-1.61-1.72-2.74-4.66-1.29-6.51Z"/>
  <path class="cls-8" d="m61.71,181.96l32.4-40.42c1.96-2.45,4.45-4.46,7.36-5.63,1.9-.77,3.74-1.07,4.74,0l45.18,49.97c1.67,1.77.44,6.49-1.14,8.35l-35.95,42.16c-1.85,2.17-5.18,2.24-7.12.16l-45.19-48.38c-1.61-1.72-1.72-4.35-.27-6.2Z"/>
  <path class="cls-8" d="m15.15,238.73l35.72-45.3c1.74-2.22,5.05-2.37,6.98-.32l44.33,49c1.61,1.71,2.13,5.56.61,7.35l-36.63,42.19c-1.79,2.09-6.34,2.06-8.22.05l-42.52-46.99c-1.55-1.66-1.66-4.2-.26-5.99Z"/>
  <path class="cls-8" d="m124.1,66.82l28.81-41.95c1.68-2.7,4.77-9.02,6.16-6.16l17.44,37.87c.62,1.27-.18,2.97-.94,4.16l-29.88,46.61c-1.36,2.13-4.55,1.89-5.58-.42l-16.27-36.33c-.55-1.22-.45-2.64.25-3.78Z"/>
  <path class="cls-8" d="m146.66,120.13l30.75-44.64c1.8-2.61,6.26-2.41,7.52.49l18.29,41.71c.56,1.3-.33,2.87-1.15,4.02l-35.39,49.63c-1.87,2.63-3.02-1.86-4.18-4.87l-16.3-42.6c-.48-1.25-.31-2.65.45-3.74Z"/>
  <path class="cls-8" d="m173.26,183.71l33.78-45.74c1.85-2.51,5.72-2.07,6.96.79l16.57,39.12c.61,1.4.38,3.02-.6,4.19l-30.39,35.23s-.04.04-.06.07c-4.37,5.17-8.36,4.11-10.98-2.14l-15.61-27.24c-.71-1.37-.59-3.03.33-4.27Z"/>
  <path class="cls-3" d="m238.88,366.46l31.97-39.61c.29-.38.68-.68,1.12-.85l30.09-10.25c2.41-.97,5.06-.25,3.64,1.93l-25.59,38.23c-.32.49-.8.87-1.35,1.06l-36.9,13.62c-2.49.87-4.59-2.02-2.99-4.12Z"/>
  <path class="cls-3" d="m291.2,347.91l23.22-33.1c.35-.52.87-.91,1.47-1.1l31.93-11.34c2.55-.82,4.7,2.05,3.19,4.27l-18.94,27.83c-1.35,1.98-3.24,3.52-5.46,4.43l-32.01,13.2c-2.59,1.07-4.98-1.88-3.41-4.2Z"/>
  <path class="cls-3" d="m186.31,426.99l43.43-48.56c.33-.45.78-.79,1.3-.99l37.22-12.31c2.69-1.03,5.08,2.07,3.4,4.41l-28.09,39.09c-.29.41-.69.73-1.14.94l-52.55,21.78c-2.73,1.26-5.34-1.95-3.56-4.37Z"/>
  <path class="cls-3" d="m258.22,399.86l24.48-35.6c.26-.38.62-.7,1.03-.91l36.55-18.73c1.55-.8,3.17.95,2.26,2.44l-22.6,36.75c-.27.44-.65.79-1.1,1.02l-37.03,19.1c-2.59,1.34-5.25-1.68-3.6-4.08Z"/>
  <path class="cls-3" d="m308.92,378.59l17.96-29.42c1.48-2.42,3.66-4.33,6.25-5.47l25.04-11.07c2.34-1.03,4.61,1.58,3.26,3.75l-21.06,33.95c-.29.47-.72.83-1.23,1.04l-27.01,10.98c-2.33.95-4.51-1.63-3.2-3.77Z"/>
  <path class="cls-3" d="m340.09,331.26l19.03-28.77c.58-.89,2.04-1.82,3.1-1.72l19.22-2.74c2.22.21,3.37,2.75,2.06,4.56l-17.75,24.44c-.34.47-.81.82-1.36,1.02l-20.93,7.49c-2.6.93-4.89-1.97-3.38-4.28Z"/>
  <path class="cls-7" d="m172.31,8.03l54.63,17.43c1.05.34,1.9,1.11,2.34,2.12l15.3,35.34c1.28,2.95-1.45,6.07-4.54,5.19l-56.4-16c-1.17-.33-2.12-1.21-2.54-2.35l-13.53-36.76c-1.1-2.98,1.71-5.92,4.74-4.95Z"/>
  <path class="cls-7" d="m198.88,69.47l54.63,17.43c1.05.34,1.9,1.11,2.34,2.12l15.3,35.34c1.28,2.95-1.45,6.07-4.54,5.19l-56.4-16c-1.17-.33-2.12-1.21-2.54-2.35l-13.53-36.76c-1.1-2.98,1.71-5.92,4.74-4.95Z"/>
  <path class="cls-7" d="m247.72,31.21l52.02,16.93c1.05.34,1.9,1.11,2.34,2.12l17.91,35.84c1.28,2.95-1.45,6.07-4.54,5.19l-53.29-15.97c-1.17-.33-2.12-1.21-2.54-2.35l-16.65-36.79c-1.1-2.98,1.71-5.92,4.74-4.95Z"/>
  <path class="cls-7" d="m318.92,55.67l51.3,17.54c1.05.34,1.9,1.11,2.34,2.12l19.43,35.34c1.28,2.95-2.25,5.95-5.34,5.07l-48.59-15.67c-1.17-.33-2.44-.86-2.86-2.01l-21.02-37.44c-1.1-2.98,1.71-5.92,4.74-4.95Z"/>
  <path class="cls-7" d="m274.1,89.68l54.39,17.54c1.12.36,2.03,1.18,2.49,2.26l20.06,38.63c1.36,3.14-1.54,6.46-4.84,5.52l-57.19-16.19c-1.25-.35-2.25-1.29-2.7-2.5l-17.25-39.98c-1.17-3.17,1.83-6.3,5.05-5.27Z"/>
  <path class="cls-7" d="m351.48,116.03l48.96,13.24c1.06.29,1.95,1.02,2.44,2.01l18.58,34.46c1.41,2.89-2.88,6.28-6.01,5.54l-46.24-11.83c-1.19-.28-2.17-1.11-2.64-2.24l-19.9-35.99c-1.23-2.93,1.75-6.01,4.82-5.18Z"/>
  <path class="cls-7" d="m225.97,130.72l56.44,18.01c1.08.35,1.97,1.14,2.42,2.19l15.81,36.51c1.32,3.05-1.5,6.27-4.69,5.36l-56.48-16.83c-1.21-.34-2.19-1.25-2.62-2.43l-15.78-37.68c-1.13-3.08,1.77-6.12,4.9-5.12Z"/>
  <path class="cls-7" d="m302.83,153.02l60.04,18.36c1.09.35,1.98,1.15,2.43,2.2l15.88,36.68c1.33,3.07-1.5,6.3-4.72,5.38l-58.55-16.61c-1.22-.35-2.2-1.25-2.64-2.44l-14.89-38.13c-1.14-3.09-.71-6.44,2.43-5.44Z"/>
  <path class="cls-7" d="m380.26,172.14l50.87,14.35c1.09.35,1.97,1.15,2.42,2.19l21.52,40.26c1.32,3.06-1.5,6.28-4.7,5.37l-48.4-13.38c-1.22-.34-2.19-1.25-2.63-2.44l-23.07-41.49c-1.14-3.09.86-5.87,3.99-4.87Z"/>
  <path class="cls-3" d="m365.59,287.11l47.61,13.47c3.3.93,6.84-.3,8.85-3.08l31.64-43.84c3.36-4.66.99-11.25-4.57-12.69l-50.58-13.11c-3.38-.88-6.95.49-8.87,3.41l-28.67,43.48c-3.04,4.61-.72,10.85,4.6,12.36Z"/>
  <path class="cls-3" d="m287.55,263.99l52.28,16.07c3.08.76,6.3-.48,8.09-3.1l30.34-44.57c2.96-4.35.7-10.33-4.4-11.63l-54.43-13.89c-3.39-.87-6.94.7-8.58,3.79l-25.85,43.03c-2.33,4.37-2.25,9.12,2.56,10.3Z"/>
  <path class="cls-3" d="m210.71,237l55.56,20.07c2.16.6,4.22-1.71,5.48-3.56l31.01-45.56c2.04-2.99.48-7.1-3.03-8l-58.05-14.82c-2.35-.6-4.8.5-5.92,2.64l-30.4,40.44c-1.54,2.95,2.15,7.9,5.36,8.78Z"/>
  <text/>
  <g>
    <path class="cls-6" d="m230.02,213.38l-4.72-4.35h-36.59v61.49h36.88l4.44-4.44v-13.92l-6.09-6.09,6.09-6v-26.7Zm-14.79,22.7h-4.78v-5.39h4.78v5.39Z"/>
    <polygon class="cls-6" points="239.62 208.16 238.89 270.34 254.11 270.34 254.11 206.26 239.82 206.26 239.62 208.16"/>
    <polygon class="cls-6" points="261.2 269.9 261.2 206.12 277.86 206.84 289.99 216.51 289.58 206.12 303.87 206.12 303.87 269.9 290.09 269.9 289.89 230.08 274.98 217.23 275.6 270.48 261.2 269.9"/>
    <polygon class="cls-6" points="311.77 211.92 314.43 209.03 351.68 209.03 351.68 229.07 322.72 229.07 322.72 258.21 337.95 257.64 337.8 250.47 331.73 250.86 331.73 241.76 351.68 241.91 351.68 267.36 346.51 272.19 314.36 272.19 310.97 267.59 311.77 211.92"/>
    <path class="cls-6" d="m123.1,208.07h-33.1l-5.86,5.55.62.14v52.08l4.44,4.97h9.83l-.49,3.87,13.19-.04v-3.83l10.67.27,5.24-3.91v-53.42l-4.52-5.69Zm-11.82,43.96h-4.78v-21.05h4.78v21.05Z"/>
    <text class="cls-1" transform="translate(80.28 271.06)"><tspan class="cls-13" x="0" y="0">q</tspan><tspan class="cls-11" x="48.7" y="0" xml:space="preserve">   </tspan><tspan class="cls-12" x="104.02" y="0">bing</tspan></text>
    <g>
      <polygon class="cls-2" points="146.68 237.9 149.94 235.79 174.8 235.87 174.8 245.67 172.5 247.23 172.63 237.84 146.68 237.9"/>
      <rect class="cls-9" x="146.65" y="237.94" width="25.92" height="9.29"/>
    </g>
  </g>
  <polygon class="cls-4" points="219.45 208.8 226.22 208.55 230.74 213.23 230.89 240.2 226.85 243.46 219.45 208.8"/>
  <rect class="cls-3" x="211.17" y="230.53" width="4.78" height="5.39"/>
  <path class="cls-8" d="m107.14,231.11v-.57h4.79v7.34s-3.05.93-4.77-1.34"/>
  <polygon class="cls-5" points="110.68 252.11 112.38 252.11 112.38 237.73 111.12 238.03 110.68 252.11"/>
</svg>